:SAMPLES-PER-SECOND 25
:FULLY-SPECIFIED
:DEGREES
353
root  20.0474 39.2266 -82.7527 2.71262 -7.36698 -3.36655
RightUpLeg  -2.78472 3.08285 6.30465
RightLeg  12.6566 0.00200141 -0.959338
RightFoot  -14.2227 -0.109136 -0.519958
RightToes  2.84633e-005 7.89722e-005 -0.000426369
Spine  2.20246 1.97318 3.09513
Spine1  4.57147 3.69244 5.01827
HEad  10.7642 -6.64742 -6.25052
LeftShoulder1  -3.88251e-019 0 -3.92111e-022
LeftArm  -36.7678 10.4459 -85.7317
LeftForeArm  35.8453 2.11586 -0.105
LeftHand  -0.59047 -4.38952 7.29066
RightShoulder  7.45443e-017 -2.42657e-020 1.96277e-018
RightArm  -26.7193 -12.7403 70.3189
RightForeArm  28.2682 3.29109 4.97367
RightHand  -1.13253 8.82004 -9.59504
LeftUpLeg  -25.9448 0.652846 -0.318232
LeftLeg  22.4315 0.61572 0.636284
LeftFoot  0.00266256 -0.207425 2.10526
LeftToes  3.91355e-005 3.11907e-005 -4.10385e-006
354
root  19.9316 39.208 -81.5543 3.53157 -8.59872 -2.73821
RightUpLeg  -1.29566 2.7335 5.34093
RightLeg  11.7568 1.67301 -0.506996
RightFoot  -15.7156 -0.125916 -0.539792
RightToes  2.84633e-005 7.89722e-005 -0.000426369
Spine  1.77941 2.48009 2.18535
Spine1  3.67501 4.82883 4.32701
HEad  11.3608 -6.66684 -6.02332
LeftShoulder1  -3.88251e-019 0 -3.92111e-022
LeftArm  -37.8627 13.4804 -84.3373
LeftForeArm  34.318 1.97812 0.58073
LeftHand  -0.55509 -4.11458 7.0511
RightShoulder  7.45443e-017 -2.42657e-020 1.96277e-018
RightArm  -26.4187 -13.0651 70.5263
RightForeArm  26.9306 4.71185 6.07076
RightHand  -1.17589 9.1863 -9.71092
LeftUpLeg  -25.7193 -0.573339 -0.213578
LeftLeg  11.7684 -2.36774 -0.252325
LeftFoot  3.68044 -0.26014 1.80537
LeftToes  3.91355e-005 3.11907e-005 -4.10385e-006
355
root  19.8342 39.0443 -80.2202 3.51866 -9.91359 -2.13274
RightUpLeg  0.448598 2.77001 4.36613
RightLeg  12.6688 2.7662 -0.0970595
RightFoot  -17.7461 -0.180286 -1.07621
RightToes  2.84633e-005 7.89722e-005 -0.000426369
Spine  1.64864 2.93759 1.53585
Spine1  3.37044 5.80677 3.65142
HEad  11.602 -6.54701 -5.96025
LeftShoulder1  -3.88251e-019 0 -3.92111e-022
LeftArm  -38.6912 16.5939 -82.9534
LeftForeArm  31.7127 2.01165 0.990181
LeftHand  -0.524988 -3.72771 6.94639
RightShoulder  7.45443e-017 -2.42657e-020 1.96277e-018
RightArm  -25.9775 -13.3706 70.7196
RightForeArm  26.4752 6.32247 7.38814
RightHand  -1.176 9.36014 -9.60403
LeftUpLeg  -25.4404 -1.41076 -0.36218
LeftLeg  7.23161 -3.05024 0.303311
LeftFoot  4.16064 -0.225891 1.47309
LeftToes  3.91355e-005 3.11907e-005 -4.10385e-006
356
root  19.7374 38.7826 -78.6965 2.31514 -10.9514 -1.32824
RightUpLeg  3.12542 3.51579 3.28758
RightLeg  14.9585 2.8413 0.261549
RightFoot  -20.5321 -0.287047 -1.84308
RightToes  2.84633e-005 7.89722e-005 -0.000426369
Spine  1.94923 3.22458 1.13928
Spine1  3.95131 6.34283 2.98514
HEad  11.2918 -6.56837 -5.95956
LeftShoulder1  -3.88251e-019 0 -3.92111e-022
LeftArm  -39.3055 19.058 -81.9676
LeftForeArm  30.1403 2.01383 1.5246
LeftHand  -0.563547 -3.6748 7.47584
RightShoulder  7.45443e-017 -2.42657e-020 1.96277e-018
RightArm  -24.3861 -13.6646 70.774
RightForeArm  25.3755 8.38651 8.60395
RightHand  -1.12652 9.65073 -9.05211
LeftUpLeg  -24.4569 -1.81329 -1.00773
LeftLeg  8.72949 -0.317963 0.607342
LeftFoot  3.59911 -0.190114 1.28355
LeftToes  3.91355e-005 3.11907e-005 -4.10385e-006
357
root  19.6505 38.5197 -77.0126 0.67375 -11.0943 -0.42833
RightUpLeg  5.31514 3.51635 1.88958
RightLeg  19.6608 3.32009 1.15159
RightFoot  -22.6899 -0.168254 -0.156663
RightToes  2.84633e-005 7.89722e-005 -0.000426369
Spine  2.31659 3.06343 0.756572
Spine1  4.64801 5.94594 2.31754
HEad  11.3551 -6.72104 -5.65609
LeftShoulder1  -3.88251e-019 0 -3.92111e-022
LeftArm  -39.981 20.9495 -81.4088
LeftForeArm  30.4701 1.9653 2.36754
LeftHand  -0.583601 -3.83681 7.60652
RightShoulder  7.45443e-017 -2.42657e-020 1.96277e-018
RightArm  -22.0598 -14.3378 70.8944
RightForeArm  22.2124 10.4716 9.08531
RightHand  -1.14737 10.4339 -8.78292
LeftUpLeg  -23.1772 -2.4021 -2.26133
LeftLeg  13.678 2.55964 1.06113
LeftFoot  3.84767 -0.347949 2.43722
LeftToes  3.91355e-005 3.11907e-005 -4.10385e-006
